<svg xmlns="http://www.w3.org/2000/svg" viewBox="0 0 176 176" role="img" aria-labelledby="title">
  <title id="title">Linkerdog</title>
  <rect width="176" height="176" fill="#fffdf7" />
  <g transform="translate(8 3)" fill="none" stroke="#050505" stroke-linecap="round" stroke-linejoin="round" stroke-width="9">
    <path d="M38 34c34-1.5 71-2 91 18 24 24 25 75 0 99-19 18-56 18-91 16V34Z" />
    <path d="M63 55h30c26 0 45 19 45 47s-19 47-45 47H63V55Z" />
    <path d="M38 103 79 124 125 51" />
    <path d="M38 148 125 51" />
    <circle cx="38" cy="103" r="11" fill="#f7f0e4" />
    <circle cx="38" cy="148" r="11" fill="#f7f0e4" />
    <circle cx="79" cy="124" r="11" fill="#f7f0e4" />
    <circle cx="125" cy="51" r="11" fill="#f7f0e4" />
  </g>
  <g transform="translate(8 3)" fill="#050505">
    <ellipse cx="76" cy="77" rx="4" ry="7" />
    <ellipse cx="91" cy="77" rx="4" ry="7" />
  </g>
</svg>
